<?xml version="1.0" encoding="utf-8"?>
<svg xmlns="http://www.w3.org/2000/svg" viewBox="367.859 138.862 42.906 43.906" width="42.906px" height="43.906px"><path d="M 384.859 182.768 C 375.48 182.768 367.859 175.147 367.859 165.768 C 367.859 156.39 375.48 148.768 384.859 148.768 C 388.57 148.768 391.999 149.964 394.796 151.987 L 407.953 138.862 L 410.765 141.675 L 397.765 154.706 C 400.32 157.683 401.859 161.546 401.859 165.768 C 401.859 175.147 394.238 182.768 384.859 182.768 Z M 384.859 180.768 C 393.156 180.768 399.859 174.065 399.859 165.768 C 399.859 157.472 393.156 150.768 384.859 150.768 C 376.562 150.768 369.859 157.472 369.859 165.768 C 369.859 174.065 376.562 180.768 384.859 180.768 Z" style="paint-order: stroke markers; fill: rgb(179, 179, 179); transform-origin: 389.312px 160.815px;" transform="matrix(-1, 0, 0, -1, 0.000061035156, 0)" id="object-0"/></svg>